{"title":"Screenshots","uid":8428826,"size":3332913740,"categoryP":"video","categoryS":"movies_dvdr","magnet":"?xt=urn:btih:19ef3e366aa303f152d738b73626b823747dab19&amp;dn=Screenshots&amp;tr=udp%3A%2F%2Ftracker.openbittorrent.com%3A80&amp;tr=udp%3A%2F%2Fopen.demonii.com%3A1337&amp;tr=udp%3A%2F%2Ftracker.coppersurfer.tk%3A6969&amp;tr=udp%3A%2F%2Fexodus.desync.com%3A6969","seeders":0,"leechers":1,"uploader":".alrmothe","files":4,"time":1367431304,"description":"\nRemux\n &lt;a href=&quot;\nhttp://en.wikipedia.org/wiki/Remux&quot; rel=&quot;nofollow&quot; target=&quot;_NEW&quot;&gt;\nhttp://en.wikipedia.org/wiki/Remux&lt;/a&gt;\n\n\n*********************************************************\n \nEthaaet Hob 2011 Arabic Dvd Remux - alrmothe \n\n*********************************************************\n\nTiTLE: Asad and 4Cats\nYEAR:2012\nGENRE : Comedy\nelcinema URL : http://www.elcinema.com/work/wk1537236/\nSIZE : 3.10 GB\nOverall bit rate:4573 Kbps\nSub: Arabic,English,French\nThe same subtitle format used on DVDs\n \n*********************************************************\n\nVideo\nFormat : Matroska\nFormat : MPEG Video\nFormat version : Version 2\nFormat profile : Main@Main\nFormat settings, BVOP : No\nFormat settings, Matrix : Custom\nCodec ID : V_MPEG2\nCodec ID/Info : MPEG 1 or 2 Video\nDuration : 1h 37mn\nBit rate : 4290 Kbps\nMaximum bit rate : 6000 Kbps\nWidth : 720 pixels\nHeight : 576 pixels\nDisplay aspect ratio : 4:3\nFrame rate mode : Constant\nFrame rate : 25.000 fps\nStandard : PAL\nColor space : YUV\nChroma subsampling : 4:2:0\nBit depth : 8 bits\nCompression mode : Lossy\nBits/(Pixel*Frame) : 0.414\nStream size : 2.91 GiB (94%)\nTitle : Ethaaet Hob 2011 Arabic Dvd Remux - alrmothe\nLanguage : Arabic\nDefault : Yes\nForced : No\n\nAudio\nFormat : AC-3\nFormat/Info : Audio Coding 3\nMode extension : CM (complete main)\nFormat settings, Endianness : Big\nMuxing mode : Header stripping\nCodec ID : A_AC3\nBit rate mode : Constant\nBit rate : 192 Kbps\nChannel(s) : 2 channels\nChannel positions : Front: L R\nSampling rate : 48.0 KHz\nBit depth : 16 bits\nCompression mode : Lossy\nStream size : 133 MiB (4%)\nTitle : AC3 , 2\nLanguage : Arabic\nDefault : Yes\nForced : No\n*********************************************************\n\nScreenshots &lt;a href=&quot;\nhttp://img600.imageshack.us/img600/5320/vlcsnap2013050113h35m49.png&quot; rel=&quot;nofollow&quot; target=&quot;_NEW&quot;&gt;\nhttp://img600.imageshack.us/img600/5320/vlcsnap2013050113h35m49.png&lt;/a&gt; &lt;a href=&quot;\nhttp://img706.imageshack.us/img706/262/vlcsnap2013050113h35m56.png&quot; rel=&quot;nofollow&quot; target=&quot;_NEW&quot;&gt;\nhttp://img706.imageshack.us/img706/262/vlcsnap2013050113h35m56.png&lt;/a&gt; &lt;a href=&quot;\nhttp://img202.imageshack.us/img202/477/vlcsnap2013050115h01m06.png&quot; rel=&quot;nofollow&quot; target=&quot;_NEW&quot;&gt;\nhttp://img202.imageshack.us/img202/477/vlcsnap2013050115h01m06.png&lt;/a&gt; &lt;a href=&quot;\nhttp://img843.imageshack.us/img843/2259/81188890.png&quot; rel=&quot;nofollow&quot; target=&quot;_NEW&quot;&gt;\nhttp://img843.imageshack.us/img843/2259/81188890.png&lt;/a&gt;\n","torrent":{"xt":"urn:btih:19ef3e366aa303f152d738b73626b823747dab19","amp;dn":"Screenshots","amp;tr":["udp%3A%2F%2Ftracker.openbittorrent.com%3A80","udp%3A%2F%2Fopen.demonii.com%3A1337","udp%3A%2F%2Ftracker.coppersurfer.tk%3A6969","udp%3A%2F%2Fexodus.desync.com%3A6969"],"infoHash":"19ef3e366aa303f152d738b73626b823747dab19","infoHashBuffer":{"type":"Buffer","data":[25,239,62,54,106,163,3,241,82,215,56,183,54,38,184,35,116,125,171,25]},"announce":[],"urlList":[]}}